<?xml version="1.0" standalone="no"?>
<!DOCTYPE svg PUBLIC "-//W3C//DTD SVG 20010904//EN"
 "http://www.w3.org/TR/2001/REC-SVG-20010904/DTD/svg10.dtd">
<svg version="1.0" xmlns="http://www.w3.org/2000/svg"
 width="512.000000pt" height="512.000000pt" viewBox="0 0 512.000000 512.000000"
 preserveAspectRatio="xMidYMid meet">
<metadata>
Created by potrace 1.14, written by Peter Selinger 2001-2017
</metadata>
<g transform="translate(0.000000,512.000000) scale(0.100000,-0.100000)"
fill="#000000" stroke="none">
<path d="M105 5106 c-16 -8 -41 -24 -54 -36 -54 -52 -51 23 -51 -1523 0 -1046
3 -1443 11 -1468 14 -41 43 -75 84 -97 27 -15 128 -17 1135 -18 l1105 -1 27
28 c51 50 29 123 -42 137 -19 4 -299 7 -622 6 l-588 0 0 213 0 213 736 0 c485
0 742 4 755 10 16 9 49 59 49 75 0 16 -33 66 -49 75 -12 6 -109 10 -243 10
l-224 0 -1 210 c0 116 2 211 6 212 3 1 222 2 485 3 l479 2 28 31 c21 24 27 38
24 64 -5 35 -48 79 -75 77 -8 -1 -455 -1 -992 0 l-978 1 0 210 c0 116 3 211 8
211 4 1 357 2 785 3 l779 1 24 28 c38 44 29 102 -19 129 -16 9 -93 13 -287 13
l-265 1 -1 212 -1 212 391 0 c372 0 393 1 424 20 17 11 32 25 33 32 0 7 2 23
5 35 2 15 -6 34 -24 55 l-29 31 -911 0 -912 0 0 214 0 213 1920 0 1920 0 -2
-212 -3 -213 -610 -2 c-335 0 -623 -2 -638 -2 -39 -1 -77 -42 -77 -83 0 -38 6
-48 40 -71 20 -14 51 -17 187 -17 l163 0 0 -199 c0 -196 0 -200 24 -227 32
-38 90 -38 123 1 22 25 23 32 23 226 l0 199 385 0 385 0 -2 -212 -3 -213 -265
0 c-146 -1 -274 -4 -285 -8 -27 -9 -52 -55 -47 -88 2 -15 14 -37 28 -50 25
-24 26 -24 297 -24 l272 -1 3 -212 2 -212 -180 0 c-201 0 -235 -8 -246 -58 -3
-15 -8 -33 -10 -40 -6 -21 51 -72 83 -73 15 0 101 -1 191 -2 l162 0 0 -214 0
-213 -145 0 c-142 0 -147 -1 -170 -25 -32 -31 -33 -82 -4 -116 20 -23 27 -24
170 -27 l149 -3 0 -213 0 -212 -102 1 c-57 0 -115 -4 -131 -9 -60 -18 -76 -89
-29 -136 l28 -28 140 2 c157 2 183 10 231 73 l28 36 3 1446 c2 1018 0 1457 -8
1483 -12 42 -45 80 -90 103 -25 13 -320 15 -2457 15 -2013 -1 -2433 -3 -2458
-14z m833 -368 l-3 -213 -380 0 -380 0 -3 213 -2 212 385 0 385 0 -2 -212z
m1023 -405 c4 -104 3 -381 -2 -393 -6 -13 -115 -15 -896 -15 l-888 1 -3 212
-2 212 895 0 c845 0 895 -1 896 -17z m-1034 -582 c9 -1 12 -54 12 -211 l0
-210 -384 0 -385 0 0 208 c0 115 2 211 4 213 4 3 714 3 753 0z m1034 -605 c1
-15 1 -343 0 -383 l-1 -33 -895 0 -895 0 0 213 0 214 895 0 c634 0 895 -4 896
-11z m-1021 -799 l0 -213 -385 0 -385 -1 0 214 0 213 384 0 385 0 1 -213z"/>
<path d="M3160 4632 c-26 -13 -37 -26 -44 -53 -9 -35 -6 -42 56 -130 94 -134
335 -472 346 -485 5 -5 14 -20 21 -31 6 -12 17 -27 23 -35 7 -7 26 -33 43 -57
16 -24 40 -50 52 -58 31 -21 88 -9 109 22 35 54 31 62 -243 446 -143 200 -266
369 -274 375 -27 22 -54 24 -89 6z"/>
<path d="M2881 3889 c-51 -20 -68 -86 -33 -128 17 -21 659 -274 729 -287 27
-5 37 -1 63 24 39 39 40 83 4 117 -14 13 -36 27 -48 31 -34 11 -568 213 -601
228 -46 20 -87 26 -114 15z"/>
<path d="M3940 3729 c-53 -11 -112 -47 -142 -86 -14 -19 -43 -78 -63 -131 -86
-224 -99 -257 -104 -263 -3 -4 -34 -9 -67 -12 -75 -7 -167 -37 -242 -79 -72
-40 -179 -147 -220 -218 -24 -43 -37 -56 -57 -58 -49 -4 -126 -45 -163 -87
-30 -34 -56 -91 -129 -286 -50 -134 -221 -584 -379 -999 -316 -833 -310 -814
-264 -913 36 -76 90 -116 231 -169 68 -25 225 -85 349 -132 852 -324 820 -314
909 -282 61 22 106 58 135 109 20 34 125 297 183 461 8 22 36 96 63 165 58
152 197 518 292 771 38 102 73 194 79 205 29 64 148 397 151 425 7 58 -10 122
-48 177 -20 29 -33 56 -30 61 22 36 28 196 10 282 -25 119 -76 216 -158 303
l-36 37 62 163 c76 201 88 248 75 307 -15 72 -65 138 -127 170 -53 26 -200 77
-240 82 -19 3 -51 1 -70 -3z m153 -200 c89 -32 117 -55 117 -94 0 -16 -105
-312 -114 -322 -2 -2 -38 12 -82 31 -43 19 -107 43 -141 53 -35 10 -63 21 -63
25 0 15 112 303 123 317 13 15 47 30 62 25 6 -1 50 -17 98 -35z m-338 -474
c85 -23 261 -94 308 -126 139 -93 209 -220 210 -381 1 -48 -1 -90 -5 -93 -3
-3 -34 5 -69 19 -117 45 -221 84 -584 222 -198 75 -364 139 -368 143 -12 12
65 103 119 142 117 84 252 109 389 74z m-565 -381 c52 -20 122 -46 155 -59 33
-13 246 -94 474 -180 227 -86 432 -163 453 -172 46 -19 70 -61 58 -102 -4 -14
-29 -82 -55 -151 -26 -69 -57 -152 -70 -185 -12 -33 -43 -114 -68 -180 -25
-66 -66 -176 -92 -245 -25 -69 -50 -134 -55 -145 -9 -19 -68 -174 -251 -660
-44 -116 -83 -219 -88 -230 -5 -11 -22 -53 -37 -93 -27 -72 -56 -102 -96 -102
-7 0 -74 23 -148 51 -248 94 -474 180 -535 204 -33 13 -98 37 -145 54 -47 18
-94 36 -105 41 -11 5 -76 30 -145 55 -151 56 -167 66 -178 107 -7 26 3 61 61
212 66 174 160 421 232 611 383 1010 446 1172 466 1188 31 25 62 21 169 -19z"/>
<path d="M3430 2052 c-40 -7 -106 -61 -230 -189 -123 -125 -235 -256 -290
-337 -113 -167 -97 -373 39 -513 126 -129 306 -161 468 -82 125 60 203 175
224 329 10 76 14 437 5 500 -2 14 -7 59 -11 100 -8 77 -19 110 -52 145 -34 38
-97 57 -153 47z m39 -234 c1 -29 4 -69 6 -88 7 -63 7 -353 0 -425 -12 -115
-46 -176 -123 -218 -162 -88 -359 34 -347 215 6 77 36 128 165 279 74 87 275
289 287 289 5 0 11 -24 12 -52z"/>
</g>
</svg>
